<mxfile host="app.diagrams.net" modified="2023-06-24T17:18:18.101Z" agent="Mozilla/5.0 (X11; Linux x86_64) AppleWebKit/537.36 (KHTML, like Gecko) Chrome/114.0.0.0 Safari/537.36" version="21.5.0" etag="xuFbz0GYjnOy14poODKd" type="github">
  <diagram name="Page-1" id="-RrRd8Hf_nuVSA-qdh11">
    <mxGraphModel>
      <root>
        <mxCell id="0" />
        <mxCell id="1" parent="0" />
      </root>
    </mxGraphModel>
  </diagram>
</mxfile>
